<svg xmlns="http://www.w3.org/2000/svg" width="260" height="220" viewBox="0 0 26 22">
  <title>Twitter logo optimized by @elliz</title>
  <path fill="inherit" d="M.5 18.7c10 6.2 22.7-.7 22.5-13 1-.7 1.9-1.6 2.6-2.7-1 .5-2 .8-3.1.9 1.14-.7 2-1.7 2.4-2.9-1 .6-2 1-3.3 1.3-4.3-4.13-10 .3-8.8 4.7-4.3-.2-8-2.3-10.6-5.4C1 4 1.5 7.1 3.9 8.5 3 8.4 2 8.2 1.5 7.8c0 2.6 1.8 4.6 4.1 5.1-.8.2-1.5.3-2.3.1.6 2 2.6 3.6 4.8 3.6-2 1.6-4.7 2.4-7.6 2.1z"/>
</svg>

<p>x10 attempt - path data = 236 characters - WINNER</p>

<svg xmlns="http://www.w3.org/2000/svg" width="260" height="220" viewBox="0 0 260 220">
  <title>Twitter x10 about 50 bytes smaller because loosing '.'s trumps adding 0's</title>
  <path fill="inherit" d="M5 187c100 62 227-7 225-130 10-7 19-16 26-27-10 5-20 8-31 9 11.4-7 20-17 24-29-10 6-20 10-33 13-43-41.3-100 3-88 47-43-2-80-23-106-54C10 40 15 71 39 85 30 84 20 82 15 78c0 26 18 46 41 51-8 2-15 3-23 1 6 20 26 36 48 36-20 16-47 24-76 21z"/>
</svg>